<?xml version="1.0" encoding="UTF-8"?>
<!DOCTYPE svg PUBLIC "-//W3C//DTD SVG 1.1//EN" "http://www.w3.org/Graphics/SVG/1.1/DTD/svg11.dtd">
<svg xmlns="http://www.w3.org/2000/svg" version="1.1" width="3334px" height="2250px" style="shape-rendering:geometricPrecision; text-rendering:geometricPrecision; image-rendering:optimizeQuality; fill-rule:evenodd; clip-rule:evenodd" xmlns:xlink="http://www.w3.org/1999/xlink">
<g><path style="opacity:1" fill="#f9faf9" d="M 1684.5,80.5 C 1685.38,80.3691 1686.04,80.7025 1686.5,81.5C 1755.04,225.372 1840.54,357.706 1943,478.5C 2051.43,590.271 2128.43,721.271 2174,871.5C 2182,898.817 2189.16,926.317 2195.5,954C 2366.33,910.75 2533.33,922.417 2696.5,989C 2838.9,1036.91 2985.24,1062.75 3135.5,1066.5C 3035.21,1220.95 2959.88,1387.11 2909.5,1565C 2855.83,1728.12 2765.16,1866.45 2637.5,1980C 2532.51,2070.83 2411.85,2132.17 2275.5,2164C 2146.89,2180.37 2041.72,2138.53 1960,2038.5C 1935.19,2006.23 1915.52,1970.9 1901,1932.5C 1893.38,1909.33 1886.38,1886 1880,1862.5C 1863.5,1828.5 1836.33,1812.33 1798.5,1814C 1789.83,1815.56 1781.49,1817.9 1773.5,1821C 1812.25,1791.41 1824.08,1753.25 1809,1706.5C 1805.72,1698.23 1801.22,1690.73 1795.5,1684C 1747.72,1671.47 1713.56,1687.64 1693,1732.5C 1688.93,1743.13 1686.59,1754.13 1686,1765.5C 1683.73,1736.47 1671.57,1712.63 1649.5,1694C 1626.6,1677.97 1601.93,1674.63 1575.5,1684C 1559.13,1704.63 1552.63,1728.13 1556,1754.5C 1560.1,1782.9 1573.94,1805.07 1597.5,1821C 1553.35,1804.72 1518.85,1816.55 1494,1856.5C 1492.06,1860.05 1490.39,1863.71 1489,1867.5C 1474,1939.83 1442.33,2003.5 1394,2058.5C 1304.38,2152.7 1195.88,2185.87 1068.5,2158C 874.413,2103.48 717.913,1995.31 599,1833.5C 526.407,1733.29 474.407,1622.96 443,1502.5C 392.784,1347.75 323.617,1202.42 235.5,1066.5C 409.523,1062.2 577.523,1028.36 739.5,965C 884.174,920.234 1029.84,916.734 1176.5,954.5C 1215.14,770.508 1299.31,611.508 1429,477.5C 1531.65,356.973 1616.82,224.64 1684.5,80.5 Z"/></g>
</svg>
